<?xml version="1.0" encoding="UTF-8"?>
<svg width="1289px" height="889px" viewBox="0 0 1289 889" version="1.1" xmlns="http://www.w3.org/2000/svg" xmlns:xlink="http://www.w3.org/1999/xlink">
    <!-- Generator: Sketch 44.1 (41455) - http://www.bohemiancoding.com/sketch -->
    <title>DV</title>
    <desc>Created with Sketch.</desc>
    <defs>
        <linearGradient x1="50%" y1="0%" x2="50%" y2="100%" id="linearGradient-1">
            <stop stop-color="#D1FDFF" offset="0%"></stop>
            <stop stop-color="#FDDB92" offset="100%"></stop>
        </linearGradient>
    </defs>
    <g id="index" stroke="none" stroke-width="1" fill="none" fill-rule="evenodd">
        <g id="desktop_index" transform="translate(-94.000000, 0.000000)" fill="url(#linearGradient-1)">
            <g id="background" transform="translate(-1640.000000, -1090.000000)">
                <g id="circle" transform="translate(1663.000000, 1090.000000)">
                    <path d="M101.04662,759.85473 C92.749475,759.85473 86.02331,753.131438 86.02331,744.837838 C86.02331,736.544237 92.749475,729.820946 101.04662,729.820946 C109.343765,729.820946 116.06993,736.544237 116.06993,744.837838 C116.06993,753.131438 109.343765,759.85473 101.04662,759.85473 Z M389.494172,570.641892 C374.559311,570.641892 362.452214,558.539967 362.452214,543.611486 C362.452214,528.683006 374.559311,516.581081 389.494172,516.581081 C404.429034,516.581081 416.536131,528.683006 416.536131,543.611486 C416.536131,558.539967 404.429034,570.641892 389.494172,570.641892 Z M1188.73427,663.746622 C1173.7994,663.746622 1161.69231,651.644697 1161.69231,636.716216 C1161.69231,621.787736 1173.7994,609.685811 1188.73427,609.685811 C1203.66913,609.685811 1215.77622,621.787736 1215.77622,636.716216 C1215.77622,651.644697 1203.66913,663.746622 1188.73427,663.746622 Z M1041.50583,420.472973 C1021.59268,420.472973 1005.44988,404.337073 1005.44988,384.432432 C1005.44988,364.527792 1021.59268,348.391892 1041.50583,348.391892 C1061.41898,348.391892 1077.56177,364.527792 1077.56177,384.432432 C1077.56177,404.337073 1061.41898,420.472973 1041.50583,420.472973 Z M78.511655,889 C74.3630825,889 71,885.638354 71,881.491554 C71,877.344754 74.3630825,873.983108 78.511655,873.983108 C82.6602275,873.983108 86.02331,877.344754 86.02331,881.491554 C86.02331,885.638354 82.6602275,889 78.511655,889 Z M146.11655,864.972973 C144.457121,864.972973 143.111888,863.628315 143.111888,861.969595 C143.111888,860.310875 144.457121,858.966216 146.11655,858.966216 C147.775979,858.966216 149.121212,860.310875 149.121212,861.969595 C149.121212,863.628315 147.775979,864.972973 146.11655,864.972973 Z M170.153846,792.891892 C168.494417,792.891892 167.149184,791.547234 167.149184,789.888514 C167.149184,788.229793 168.494417,786.885135 170.153846,786.885135 C171.813275,786.885135 173.158508,788.229793 173.158508,789.888514 C173.158508,791.547234 171.813275,792.891892 170.153846,792.891892 Z M152.125874,681.766892 C150.466445,681.766892 149.121212,680.422234 149.121212,678.763514 C149.121212,677.104793 150.466445,675.760135 152.125874,675.760135 C153.785303,675.760135 155.130536,677.104793 155.130536,678.763514 C155.130536,680.422234 153.785303,681.766892 152.125874,681.766892 Z M299.354312,621.699324 C297.694883,621.699324 296.34965,620.354666 296.34965,618.695946 C296.34965,617.037226 297.694883,615.692568 299.354312,615.692568 C301.013741,615.692568 302.358974,617.037226 302.358974,618.695946 C302.358974,620.354666 301.013741,621.699324 299.354312,621.699324 Z M356.44289,699.787162 C354.783461,699.787162 353.438228,698.442504 353.438228,696.783784 C353.438228,695.125064 354.783461,693.780405 356.44289,693.780405 C358.102319,693.780405 359.447552,695.125064 359.447552,696.783784 C359.447552,698.442504 358.102319,699.787162 356.44289,699.787162 Z M488.648019,750.844595 C486.98859,750.844595 485.643357,749.499936 485.643357,747.841216 C485.643357,746.182496 486.98859,744.837838 488.648019,744.837838 C490.307448,744.837838 491.652681,746.182496 491.652681,747.841216 C491.652681,749.499936 490.307448,750.844595 488.648019,750.844595 Z M500.666667,648.72973 C499.007238,648.72973 497.662005,647.385071 497.662005,645.726351 C497.662005,644.067631 499.007238,642.722973 500.666667,642.722973 C502.326096,642.722973 503.671329,644.067631 503.671329,645.726351 C503.671329,647.385071 502.326096,648.72973 500.666667,648.72973 Z M458.601399,636.716216 C456.94197,636.716216 455.596737,635.371558 455.596737,633.712838 C455.596737,632.054118 456.94197,630.709459 458.601399,630.709459 C460.260828,630.709459 461.606061,632.054118 461.606061,633.712838 C461.606061,635.371558 460.260828,636.716216 458.601399,636.716216 Z M485.643357,609.685811 C483.983928,609.685811 482.638695,608.341153 482.638695,606.682432 C482.638695,605.023712 483.983928,603.679054 485.643357,603.679054 C487.302786,603.679054 488.648019,605.023712 488.648019,606.682432 C488.648019,608.341153 487.302786,609.685811 485.643357,609.685811 Z M632.871795,534.601351 C631.212366,534.601351 629.867133,533.256693 629.867133,531.597973 C629.867133,529.939253 631.212366,528.594595 632.871795,528.594595 C634.531224,528.594595 635.876457,529.939253 635.876457,531.597973 C635.876457,533.256693 634.531224,534.601351 632.871795,534.601351 Z M569.773893,438.493243 C568.114464,438.493243 566.769231,437.148585 566.769231,435.489865 C566.769231,433.831145 568.114464,432.486486 569.773893,432.486486 C571.433322,432.486486 572.778555,433.831145 572.778555,435.489865 C572.778555,437.148585 571.433322,438.493243 569.773893,438.493243 Z M813.151515,450.506757 C811.492086,450.506757 810.146853,449.162098 810.146853,447.503378 C810.146853,445.844658 811.492086,444.5 813.151515,444.5 C814.810944,444.5 816.156177,445.844658 816.156177,447.503378 C816.156177,449.162098 814.810944,450.506757 813.151515,450.506757 Z M918.314685,342.385135 C916.655256,342.385135 915.310023,341.040477 915.310023,339.381757 C915.310023,337.723037 916.655256,336.378378 918.314685,336.378378 C919.974114,336.378378 921.319347,337.723037 921.319347,339.381757 C921.319347,341.040477 919.974114,342.385135 918.314685,342.385135 Z M993.431235,453.510135 C991.771806,453.510135 990.426573,452.165477 990.426573,450.506757 C990.426573,448.848037 991.771806,447.503378 993.431235,447.503378 C995.090664,447.503378 996.435897,448.848037 996.435897,450.506757 C996.435897,452.165477 995.090664,453.510135 993.431235,453.510135 Z M951.365967,579.652027 C949.706538,579.652027 948.361305,578.307369 948.361305,576.648649 C948.361305,574.989929 949.706538,573.64527 951.365967,573.64527 C953.025396,573.64527 954.370629,574.989929 954.370629,576.648649 C954.370629,578.307369 953.025396,579.652027 951.365967,579.652027 Z M867.235431,669.753378 C865.576002,669.753378 864.230769,668.40872 864.230769,666.75 C864.230769,665.09128 865.576002,663.746622 867.235431,663.746622 C868.89486,663.746622 870.240093,665.09128 870.240093,666.75 C870.240093,668.40872 868.89486,669.753378 867.235431,669.753378 Z M768.081585,573.64527 C766.422156,573.64527 765.076923,572.300612 765.076923,570.641892 C765.076923,568.983172 766.422156,567.638514 768.081585,567.638514 C769.741014,567.638514 771.086247,568.983172 771.086247,570.641892 C771.086247,572.300612 769.741014,573.64527 768.081585,573.64527 Z M813.151515,540.608108 C811.492086,540.608108 810.146853,539.26345 810.146853,537.60473 C810.146853,535.94601 811.492086,534.601351 813.151515,534.601351 C814.810944,534.601351 816.156177,535.94601 816.156177,537.60473 C816.156177,539.26345 814.810944,540.608108 813.151515,540.608108 Z M1101.59907,564.635135 C1099.93964,564.635135 1098.59441,563.290477 1098.59441,561.631757 C1098.59441,559.973037 1099.93964,558.628378 1101.59907,558.628378 C1103.2585,558.628378 1104.60373,559.973037 1104.60373,561.631757 C1104.60373,563.290477 1103.2585,564.635135 1101.59907,564.635135 Z M1158.68765,435.489865 C1157.02822,435.489865 1155.68298,434.145207 1155.68298,432.486486 C1155.68298,430.827766 1157.02822,429.483108 1158.68765,429.483108 C1160.34707,429.483108 1161.69231,430.827766 1161.69231,432.486486 C1161.69231,434.145207 1160.34707,435.489865 1158.68765,435.489865 Z M1239.81352,357.402027 C1238.15409,357.402027 1236.80886,356.057369 1236.80886,354.398649 C1236.80886,352.739929 1238.15409,351.39527 1239.81352,351.39527 C1241.47295,351.39527 1242.81818,352.739929 1242.81818,354.398649 C1242.81818,356.057369 1241.47295,357.402027 1239.81352,357.402027 Z M1155.68298,246.277027 C1154.02355,246.277027 1152.67832,244.932369 1152.67832,243.273649 C1152.67832,241.614929 1154.02355,240.27027 1155.68298,240.27027 C1157.34241,240.27027 1158.68765,241.614929 1158.68765,243.273649 C1158.68765,244.932369 1157.34241,246.277027 1155.68298,246.277027 Z M1245.82284,162.182432 C1244.16341,162.182432 1242.81818,160.837774 1242.81818,159.179054 C1242.81818,157.520334 1244.16341,156.175676 1245.82284,156.175676 C1247.48227,156.175676 1248.82751,157.520334 1248.82751,159.179054 C1248.82751,160.837774 1247.48227,162.182432 1245.82284,162.182432 Z M1215.77622,165.185811 C1214.11679,165.185811 1212.77156,163.841153 1212.77156,162.182432 C1212.77156,160.523712 1214.11679,159.179054 1215.77622,159.179054 C1217.43565,159.179054 1218.78089,160.523712 1218.78089,162.182432 C1218.78089,163.841153 1217.43565,165.185811 1215.77622,165.185811 Z M1215.77622,129.14527 C1214.11679,129.14527 1212.77156,127.800612 1212.77156,126.141892 C1212.77156,124.483172 1214.11679,123.138514 1215.77622,123.138514 C1217.43565,123.138514 1218.78089,124.483172 1218.78089,126.141892 C1218.78089,127.800612 1217.43565,129.14527 1215.77622,129.14527 Z M536.722611,390.439189 C535.063182,390.439189 533.717949,389.094531 533.717949,387.435811 C533.717949,385.777091 535.063182,384.432432 536.722611,384.432432 C538.38204,384.432432 539.727273,385.777091 539.727273,387.435811 C539.727273,389.094531 538.38204,390.439189 536.722611,390.439189 Z M638.881119,360.405405 C637.22169,360.405405 635.876457,359.060747 635.876457,357.402027 C635.876457,355.743307 637.22169,354.398649 638.881119,354.398649 C640.540548,354.398649 641.885781,355.743307 641.885781,357.402027 C641.885781,359.060747 640.540548,360.405405 638.881119,360.405405 Z M287.335664,864.972973 C285.676235,864.972973 284.331002,863.628315 284.331002,861.969595 C284.331002,860.310875 285.676235,858.966216 287.335664,858.966216 C288.995093,858.966216 290.340326,860.310875 290.340326,861.969595 C290.340326,863.628315 288.995093,864.972973 287.335664,864.972973 Z M255.786713,825.929054 C251.638141,825.929054 248.275058,822.567408 248.275058,818.420608 C248.275058,814.273808 251.638141,810.912162 255.786713,810.912162 C259.935286,810.912162 263.298368,814.273808 263.298368,818.420608 C263.298368,822.567408 259.935286,825.929054 255.786713,825.929054 Z M279.824009,669.753378 C275.675437,669.753378 272.312354,666.391733 272.312354,662.244932 C272.312354,658.098132 275.675437,654.736486 279.824009,654.736486 C283.972582,654.736486 287.335664,658.098132 287.335664,662.244932 C287.335664,666.391733 283.972582,669.753378 279.824009,669.753378 Z M333.907925,375.422297 C329.759353,375.422297 326.39627,372.060652 326.39627,367.913851 C326.39627,363.767051 329.759353,360.405405 333.907925,360.405405 C338.056498,360.405405 341.41958,363.767051 341.41958,367.913851 C341.41958,372.060652 338.056498,375.422297 333.907925,375.422297 Z M409.024476,858.966216 C404.875903,858.966216 401.512821,855.60457 401.512821,851.45777 C401.512821,847.31097 404.875903,843.949324 409.024476,843.949324 C413.173048,843.949324 416.536131,847.31097 416.536131,851.45777 C416.536131,855.60457 413.173048,858.966216 409.024476,858.966216 Z M511.182984,468.527027 C507.034411,468.527027 503.671329,465.165381 503.671329,461.018581 C503.671329,456.871781 507.034411,453.510135 511.182984,453.510135 C515.331556,453.510135 518.694639,456.871781 518.694639,461.018581 C518.694639,465.165381 515.331556,468.527027 511.182984,468.527027 Z M877.751748,411.462838 C873.603176,411.462838 870.240093,408.101192 870.240093,403.954392 C870.240093,399.807592 873.603176,396.445946 877.751748,396.445946 C881.900321,396.445946 885.263403,399.807592 885.263403,403.954392 C885.263403,408.101192 881.900321,411.462838 877.751748,411.462838 Z M1166.1993,390.439189 C1162.05073,390.439189 1158.68765,387.077543 1158.68765,382.930743 C1158.68765,378.783943 1162.05073,375.422297 1166.1993,375.422297 C1170.34787,375.422297 1173.71096,378.783943 1173.71096,382.930743 C1173.71096,387.077543 1170.34787,390.439189 1166.1993,390.439189 Z M1049.01748,222.25 C1044.86891,222.25 1041.50583,218.888354 1041.50583,214.741554 C1041.50583,210.594754 1044.86891,207.233108 1049.01748,207.233108 C1053.16606,207.233108 1056.52914,210.594754 1056.52914,214.741554 C1056.52914,218.888354 1053.16606,222.25 1049.01748,222.25 Z M715.5,390.439189 C711.351427,390.439189 707.988345,387.077543 707.988345,382.930743 C707.988345,378.783943 711.351427,375.422297 715.5,375.422297 C719.648573,375.422297 723.011655,378.783943 723.011655,382.930743 C723.011655,387.077543 719.648573,390.439189 715.5,390.439189 Z M892.775058,267.300676 C888.626486,267.300676 885.263403,263.93903 885.263403,259.79223 C885.263403,255.64543 888.626486,252.283784 892.775058,252.283784 C896.923631,252.283784 900.286713,255.64543 900.286713,259.79223 C900.286713,263.93903 896.923631,267.300676 892.775058,267.300676 Z M1244.32051,15.0168919 C1240.17194,15.0168919 1236.80886,11.6552461 1236.80886,7.50844595 C1236.80886,3.36164576 1240.17194,0 1244.32051,0 C1248.46909,0 1251.83217,3.36164576 1251.83217,7.50844595 C1251.83217,11.6552461 1248.46909,15.0168919 1244.32051,15.0168919 Z M484.141026,696.783784 C479.992453,696.783784 476.629371,693.422138 476.629371,689.275338 C476.629371,685.128538 479.992453,681.766892 484.141026,681.766892 C488.289598,681.766892 491.652681,685.128538 491.652681,689.275338 C491.652681,693.422138 488.289598,696.783784 484.141026,696.783784 Z M604.327506,636.716216 C600.178933,636.716216 596.815851,633.35457 596.815851,629.20777 C596.815851,625.06097 600.178933,621.699324 604.327506,621.699324 C608.476078,621.699324 611.839161,625.06097 611.839161,629.20777 C611.839161,633.35457 608.476078,636.716216 604.327506,636.716216 Z M604.327506,834.939189 C600.178933,834.939189 596.815851,831.577543 596.815851,827.430743 C596.815851,823.283943 600.178933,819.922297 604.327506,819.922297 C608.476078,819.922297 611.839161,823.283943 611.839161,827.430743 C611.839161,831.577543 608.476078,834.939189 604.327506,834.939189 Z M455.596737,774.871622 C447.299592,774.871622 440.573427,768.14833 440.573427,759.85473 C440.573427,751.561129 447.299592,744.837838 455.596737,744.837838 C463.893882,744.837838 470.620047,751.561129 470.620047,759.85473 C470.620047,768.14833 463.893882,774.871622 455.596737,774.871622 Z M587.801865,513.577703 C579.50472,513.577703 572.778555,506.854411 572.778555,498.560811 C572.778555,490.26721 579.50472,483.543919 587.801865,483.543919 C596.09901,483.543919 602.825175,490.26721 602.825175,498.560811 C602.825175,506.854411 596.09901,513.577703 587.801865,513.577703 Z M801.132867,621.699324 C792.835722,621.699324 786.109557,614.976033 786.109557,606.682432 C786.109557,598.388832 792.835722,591.665541 801.132867,591.665541 C809.430012,591.665541 816.156177,598.388832 816.156177,606.682432 C816.156177,614.976033 809.430012,621.699324 801.132867,621.699324 Z M981.412587,543.611486 C973.115442,543.611486 966.389277,536.888195 966.389277,528.594595 C966.389277,520.300994 973.115442,513.577703 981.412587,513.577703 C989.709732,513.577703 996.435897,520.300994 996.435897,528.594595 C996.435897,536.888195 989.709732,543.611486 981.412587,543.611486 Z M707.988345,207.233108 C699.6912,207.233108 692.965035,200.509817 692.965035,192.216216 C692.965035,183.922616 699.6912,177.199324 707.988345,177.199324 C716.28549,177.199324 723.011655,183.922616 723.011655,192.216216 C723.011655,200.509817 716.28549,207.233108 707.988345,207.233108 Z M1158.68765,144.162162 C1150.3905,144.162162 1143.66434,137.438871 1143.66434,129.14527 C1143.66434,120.85167 1150.3905,114.128378 1158.68765,114.128378 C1166.98479,114.128378 1173.71096,120.85167 1173.71096,129.14527 C1173.71096,137.438871 1166.98479,144.162162 1158.68765,144.162162 Z M1083.5711,321.361486 C1075.27395,321.361486 1068.54779,314.638195 1068.54779,306.344595 C1068.54779,298.050994 1075.27395,291.327703 1083.5711,291.327703 C1091.86824,291.327703 1098.59441,298.050994 1098.59441,306.344595 C1098.59441,314.638195 1091.86824,321.361486 1083.5711,321.361486 Z M1356.99534,114.128378 C1355.33591,114.128378 1353.99068,112.78372 1353.99068,111.125 C1353.99068,109.46628 1355.33591,108.121622 1356.99534,108.121622 C1358.65477,108.121622 1360,109.46628 1360,111.125 C1360,112.78372 1358.65477,114.128378 1356.99534,114.128378 Z" id="DV"></path>
                </g>
            </g>
        </g>
    </g>
</svg>